<?xml version="1.0" encoding="utf-8"?>
<!-- Generator: Adobe Illustrator 24.0.1, SVG Export Plug-In . SVG Version: 6.00 Build 0)  -->
<svg version="1.1" id="Layer_1" xmlns="http://www.w3.org/2000/svg" xmlns:xlink="http://www.w3.org/1999/xlink" x="0px" y="0px"
	 viewBox="0 0 500 500" style="enable-background:new 0 0 500 500;" xml:space="preserve">
<style type="text/css">
	.st0{fill:#1A1A1A;}
	.st1{fill:#333333;}
</style>
<g>
	<path class="st0" d="M50,175c0,13.81,11.19,25,25,25h100c13.81,0,25-11.19,25-25V75c0-13.81-11.19-25-25-25H75
		c-13.81,0-25,11.19-25,25V175z"/>
</g>
<g>
	<path class="st1" d="M300.21,175c0,13.81,11.19,25,25,25h100c13.81,0,25-11.19,25-25V75c0-13.81-11.19-25-25-25h-100
		c-13.81,0-25,11.19-25,25V175z"/>
</g>
<g>
	<path class="st0" d="M300.21,425c0,13.81,11.19,25,25,25h100c13.81,0,25-11.19,25-25V325c0-13.81-11.19-25-25-25h-100
		c-13.81,0-25,11.19-25,25V425z"/>
</g>
<g>
	<path class="st1" d="M50,425c0,13.81,11.19,25,25,25h100c13.81,0,25-11.19,25-25V325c0-13.81-11.19-25-25-25H75
		c-13.81,0-25,11.19-25,25V425z"/>
</g>
</svg>
